# xmcd
#
# Track frame offsets:
# 150
# 14883
# 26906
# 46322
# 58431
# 73429
# 86864
# 100888
# 115031
# 130228
# 144849
# 159353
#
# Disc length: 2379 seconds
#
#
# Revision: 0
# Processed by: cddbd v1.5.1PL2 Copyright (c) Steve Scherf et al.
# Submitted via: FreeRIP 2.944 
#
DISCID=b209490c
DTITLE=Jeff Brown - Poverty Liner
DYEAR=2002
DGENRE=Country
TTITLE0=Poverty Liner
TTITLE1=Home is Waiting For You
TTITLE2=Contented and Free
TTITLE3=The Stockwhip and Spur
TTITLE4=I'm Goin' Back to the Barcoo
TTITLE5=The Pittsworth Blues
TTITLE6=He Looked to be Australian to Me
TTITLE7=The Highway's This Drifter's Home
TTITLE8=Where the Bellinger River Flows
TTITLE9=The Ghost of Three Rivers Hotel
TTITLE10=Tomorrow
TTITLE11=Shadows
EXTD=
EXTT0=
EXTT1=
EXTT2=
EXTT3=
EXTT4=
EXTT5=
EXTT6=
EXTT7=
EXTT8=
EXTT9=
EXTT10=
EXTT11=
PLAYORDER=
